<svg width="125" height="103" viewBox="0 0 125 103" fill="none" xmlns="http://www.w3.org/2000/svg">
<path d="M62.5 3.49995C89.165 3.49995 110.781 25.1161 110.781 51.7811C110.781 78.4461 89.165 100.062 62.5 100.062C35.835 100.062 14.2188 78.4461 14.2188 51.7811C14.2188 25.1161 35.835 3.49995 62.5 3.49995Z" fill="#101010" fill-opacity="0.01" stroke="#FF702A" stroke-width="3"/>
<path fill-rule="evenodd" clip-rule="evenodd" d="M62.5 13.7183C83.5213 13.7183 100.562 30.7597 100.562 51.7811C100.562 72.8025 83.5213 89.8434 62.5 89.8434C41.4786 89.8434 24.4375 72.8025 24.4375 51.7811C24.4375 30.7597 41.4786 13.7183 62.5 13.7183Z" fill="#EC2734"/>
<path fill-rule="evenodd" clip-rule="evenodd" d="M62.5 13.7183C83.5213 13.7183 100.562 30.7597 100.562 51.7811C100.562 72.8025 83.5213 89.8434 62.5 89.8434C41.4786 89.8434 24.4375 72.8025 24.4375 51.7811C24.4375 30.7597 41.4786 13.7183 62.5 13.7183Z" fill="url(#paint0_linear)"/>
<g clip-path="url(#clip0)">
<g clip-path="url(#clip1)">
<path d="M101.719 28.6248H23.25C10.1332 28.6248 -0.5 39.258 -0.5 52.3747C-0.5 65.4914 10.1332 76.1246 23.25 76.1246H101.719C114.835 76.1246 125.469 65.4914 125.469 52.3747C125.469 39.258 114.835 28.6248 101.719 28.6248Z" fill="#101010" stroke="#FF702A" stroke-width="3"/>
</g>
<path d="M35.0119 43.597V66.7827H29.3713V57.1083H20.5824V66.7827H14.9745V43.597H20.5824V52.5827H29.3713V43.597H35.0119ZM47.4252 48.2538C49.2398 48.2538 50.8577 48.6364 52.2788 49.4016C53.7217 50.145 54.8477 51.2272 55.6566 52.6483C56.4874 54.0694 56.9028 55.731 56.9028 57.633C56.9028 59.5351 56.4874 61.1967 55.6566 62.6178C54.8477 64.0389 53.7217 65.1321 52.2788 65.8973C50.8577 66.6406 49.2398 67.0123 47.4252 67.0123C45.6105 67.0123 43.9818 66.6406 42.5388 65.8973C41.0958 65.1321 39.959 64.0389 39.1282 62.6178C38.3192 61.1967 37.9148 59.5351 37.9148 57.633C37.9148 55.731 38.3192 54.0694 39.1282 52.6483C39.959 51.2272 41.0958 50.145 42.5388 49.4016C43.9818 48.6364 45.6105 48.2538 47.4252 48.2538ZM47.4252 53.1074C46.3539 53.1074 45.4466 53.5009 44.7032 54.288C43.9818 55.0532 43.621 56.1682 43.621 57.633C43.621 59.0979 43.9818 60.2129 44.7032 60.9781C45.4466 61.7433 46.3539 62.1259 47.4252 62.1259C48.4965 62.1259 49.3928 61.7433 50.1143 60.9781C50.8358 60.2129 51.1965 59.0979 51.1965 57.633C51.1965 56.1682 50.8358 55.0532 50.1143 54.288C49.3928 53.5009 48.4965 53.1074 47.4252 53.1074ZM70.1738 61.9619V66.7827H67.6486C65.5061 66.7827 63.8335 66.258 62.6311 65.2086C61.4505 64.1373 60.8602 62.3773 60.8602 59.9287V53.2058H58.4006V48.4834H60.8602V43.9905H66.468V48.4834H70.141V53.2058H66.468V60.027C66.468 60.7485 66.6101 61.2514 66.8944 61.5356C67.2004 61.8198 67.7033 61.9619 68.4029 61.9619H70.1738ZM83.6887 61.9619V66.7827H81.1636C79.021 66.7827 77.3485 66.258 76.146 65.2086C74.9654 64.1373 74.3751 62.3773 74.3751 59.9287V53.2058H71.9155V48.4834H74.3751V43.9905H79.983V48.4834H83.656V53.2058H79.983V60.027C79.983 60.7485 80.1251 61.2514 80.4093 61.5356C80.7154 61.8198 81.2182 61.9619 81.9178 61.9619H83.6887ZM104.222 57.1411C104.222 57.6002 104.167 58.1031 104.058 58.6497H91.3663C91.4318 60.027 91.7816 61.0218 92.4157 61.634C93.0497 62.2243 93.8586 62.5194 94.8425 62.5194C95.6733 62.5194 96.362 62.3117 96.9085 61.8963C97.4551 61.4809 97.8158 60.9453 97.9907 60.2894H103.927C103.686 61.5793 103.161 62.7381 102.352 63.7656C101.543 64.7713 100.516 65.5693 99.2697 66.1596C98.0235 66.7281 96.6352 67.0123 95.1048 67.0123C93.3121 67.0123 91.7161 66.6406 90.3168 65.8973C88.9395 65.1321 87.8572 64.0389 87.0702 62.6178C86.2831 61.1967 85.8896 59.5351 85.8896 57.633C85.8896 55.7091 86.2722 54.0475 87.0374 52.6483C87.8244 51.2272 88.9176 50.145 90.3168 49.4016C91.7161 48.6364 93.3121 48.2538 95.1048 48.2538C96.9195 48.2538 98.5155 48.6255 99.8928 49.3688C101.27 50.1122 102.331 51.1616 103.074 52.5171C103.839 53.8507 104.222 55.3921 104.222 57.1411ZM98.5483 56.2885C98.5701 55.086 98.2422 54.1896 97.5644 53.5993C96.9085 52.9872 96.0887 52.6811 95.1048 52.6811C94.0773 52.6811 93.2246 52.9872 92.5469 53.5993C91.8691 54.2115 91.4865 55.1079 91.399 56.2885H98.5483ZM111.966 61.1749V66.7827H106.161V61.1749H111.966Z" fill="#FF702A"/>
</g>
<defs>
<linearGradient id="paint0_linear" x1="23" y1="91" x2="102" y2="91" gradientUnits="userSpaceOnUse">
<stop stop-color="#FF702A"/>
<stop offset="1" stop-color="#CC0E15"/>
</linearGradient>
<clipPath id="clip0">
<rect width="125" height="47" fill="white" transform="translate(0 29)"/>
</clipPath>
<clipPath id="clip1">
<rect width="125" height="47" fill="white" transform="translate(0 29)"/>
</clipPath>
</defs>
</svg>
