<svg width="126" height="103" viewBox="0 0 126 103" fill="none" xmlns="http://www.w3.org/2000/svg">
<path d="M63.4999 3.49964C90.1649 3.49964 111.781 25.1162 111.781 51.7812C111.781 78.4462 90.165 100.062 63.4999 100.062C36.8349 100.062 15.2187 78.4462 15.2187 51.7812C15.2187 25.1162 36.835 3.49964 63.4999 3.49964Z" fill="#101010" fill-opacity="0.01" stroke="white" stroke-width="3"/>
<path fill-rule="evenodd" clip-rule="evenodd" d="M63.4999 13.7184C84.5213 13.7184 101.562 30.7598 101.562 51.7812C101.562 72.8022 84.5213 89.8436 63.4999 89.8436C42.4787 89.8436 25.4375 72.8022 25.4375 51.7812C25.4375 30.7598 42.4787 13.7184 63.4999 13.7184Z" fill="#EC2734"/>
<path fill-rule="evenodd" clip-rule="evenodd" d="M63.4999 13.7184C84.5213 13.7184 101.562 30.7598 101.562 51.7812C101.562 72.8022 84.5213 89.8436 63.4999 89.8436C42.4787 89.8436 25.4375 72.8022 25.4375 51.7812C25.4375 30.7598 42.4787 13.7184 63.4999 13.7184Z" fill="url(#paint0_linear)"/>
<g clip-path="url(#clip0)">
<g clip-path="url(#clip1)">
<path d="M102.719 28.6249H24.25C11.1331 28.6249 0.499998 39.2581 0.499998 52.3748C0.499998 65.4915 11.1331 76.1247 24.25 76.1247H102.719C115.835 76.1247 126.469 65.4915 126.469 52.3748C126.469 39.2581 115.835 28.6249 102.719 28.6249Z" fill="#101010" stroke="#FF702A" stroke-width="3"/>
</g>
<path d="M36.0119 43.5972V66.7829H30.3713V57.1085H21.5824V66.7829H15.9745V43.5972H21.5824V52.5829H30.3713V43.5972H36.0119ZM48.4252 48.254C50.2398 48.254 51.8577 48.6366 53.2788 49.4018C54.7217 50.1452 55.8477 51.2274 56.6566 52.6485C57.4874 54.0696 57.9028 55.7312 57.9028 57.6332C57.9028 59.5353 57.4874 61.1969 56.6566 62.618C55.8477 64.0391 54.7217 65.1323 53.2788 65.8975C51.8577 66.6408 50.2398 67.0125 48.4252 67.0125C46.6105 67.0125 44.9818 66.6408 43.5388 65.8975C42.0958 65.1323 40.959 64.0391 40.1282 62.618C39.3192 61.1969 38.9148 59.5353 38.9148 57.6332C38.9148 55.7312 39.3192 54.0696 40.1282 52.6485C40.959 51.2274 42.0958 50.1452 43.5388 49.4018C44.9818 48.6366 46.6105 48.254 48.4252 48.254ZM48.4252 53.1076C47.3539 53.1076 46.4466 53.5011 45.7032 54.2882C44.9818 55.0534 44.621 56.1684 44.621 57.6332C44.621 59.0981 44.9818 60.2131 45.7032 60.9783C46.4466 61.7435 47.3539 62.1261 48.4252 62.1261C49.4965 62.1261 50.3928 61.7435 51.1143 60.9783C51.8358 60.2131 52.1965 59.0981 52.1965 57.6332C52.1965 56.1684 51.8358 55.0534 51.1143 54.2882C50.3928 53.5011 49.4965 53.1076 48.4252 53.1076ZM71.1738 61.9621V66.7829H68.6486C66.5061 66.7829 64.8335 66.2582 63.6311 65.2088C62.4505 64.1375 61.8602 62.3775 61.8602 59.9289V53.206H59.4006V48.4836H61.8602V43.9907H67.468V48.4836H71.141V53.206H67.468V60.0272C67.468 60.7487 67.6101 61.2516 67.8944 61.5358C68.2004 61.82 68.7033 61.9621 69.4029 61.9621H71.1738ZM84.6887 61.9621V66.7829H82.1636C80.021 66.7829 78.3485 66.2582 77.146 65.2088C75.9654 64.1375 75.3751 62.3775 75.3751 59.9289V53.206H72.9155V48.4836H75.3751V43.9907H80.983V48.4836H84.656V53.206H80.983V60.0272C80.983 60.7487 81.1251 61.2516 81.4093 61.5358C81.7154 61.82 82.2182 61.9621 82.9178 61.9621H84.6887ZM105.222 57.1413C105.222 57.6004 105.167 58.1033 105.058 58.6499H92.3663C92.4318 60.0272 92.7816 61.022 93.4157 61.6342C94.0497 62.2245 94.8586 62.5196 95.8425 62.5196C96.6733 62.5196 97.362 62.3119 97.9085 61.8965C98.4551 61.4811 98.8158 60.9455 98.9907 60.2896H104.927C104.686 61.5795 104.161 62.7383 103.352 63.7658C102.543 64.7715 101.516 65.5695 100.27 66.1598C99.0235 66.7283 97.6352 67.0125 96.1048 67.0125C94.3121 67.0125 92.7161 66.6408 91.3168 65.8975C89.9395 65.1323 88.8572 64.0391 88.0702 62.618C87.2831 61.1969 86.8896 59.5353 86.8896 57.6332C86.8896 55.7093 87.2722 54.0477 88.0374 52.6485C88.8244 51.2274 89.9176 50.1452 91.3168 49.4018C92.7161 48.6366 94.3121 48.254 96.1048 48.254C97.9195 48.254 99.5155 48.6257 100.893 49.369C102.27 50.1124 103.331 51.1618 104.074 52.5173C104.839 53.8509 105.222 55.3923 105.222 57.1413ZM99.5483 56.2887C99.5701 55.0862 99.2422 54.1898 98.5644 53.5995C97.9085 52.9874 97.0887 52.6813 96.1048 52.6813C95.0773 52.6813 94.2246 52.9874 93.5469 53.5995C92.8691 54.2117 92.4865 55.1081 92.399 56.2887H99.5483ZM112.966 61.175V66.7829H107.161V61.175H112.966Z" fill="#FF702A"/>
</g>
<defs>
<linearGradient id="paint0_linear" x1="24" y1="91" x2="103" y2="91" gradientUnits="userSpaceOnUse">
<stop stop-color="#FF702A"/>
<stop offset="1" stop-color="#CC0E15"/>
</linearGradient>
<clipPath id="clip0">
<rect width="126" height="47" fill="white" transform="translate(0 29)"/>
</clipPath>
<clipPath id="clip1">
<rect width="126" height="47" fill="white" transform="translate(0 29)"/>
</clipPath>
</defs>
</svg>
