<svg width="16" height="11" viewBox="0 0 16 11" fill="none" xmlns="http://www.w3.org/2000/svg">
<path d="M5.297 0.824C4.43567 0.824 3.64233 1.03933 2.917 1.47C2.203 1.88933 1.63067 2.46167 1.2 3.187C0.780667 3.901 0.571 4.68867 0.571 5.55C0.571 6.41133 0.780667 7.20467 1.2 7.93C1.63067 8.65533 2.19733 9.22767 2.9 9.647C3.63667 10.0777 4.43567 10.293 5.297 10.293C6.19233 10.293 6.98567 10.1003 7.677 9.715C8.36833 9.31833 8.901 8.76867 9.275 8.066C9.649 7.36333 9.836 6.56433 9.836 5.669C9.836 5.295 9.81333 5.02867 9.768 4.87H5.297V6.502H7.983C7.93767 6.78533 7.82433 7.063 7.643 7.335C7.42767 7.68633 7.14433 7.964 6.793 8.168C6.37367 8.41733 5.875 8.542 5.297 8.542C4.76433 8.542 4.27133 8.41167 3.818 8.151C3.376 7.879 3.019 7.51633 2.747 7.063C2.48633 6.59833 2.356 6.094 2.356 5.55C2.356 5.006 2.48633 4.50733 2.747 4.054C3.019 3.58933 3.376 3.22667 3.818 2.966C4.27133 2.694 4.76433 2.558 5.297 2.558C6.045 2.558 6.674 2.80167 7.184 3.289L8.476 2.065C7.592 1.23767 6.53233 0.824 5.297 0.824ZM12.726 3.527V4.87H11.383V6.23H12.726V7.573H14.086V6.23H15.446V4.87H14.086V3.527H12.726Z" fill="#051516"/>
</svg>
