<svg width="15" height="12" viewBox="0 0 15 12" fill="none" xmlns="http://www.w3.org/2000/svg">
<path d="M5.384 2.844V0.299999C5.384 0.214666 5.36267 0.166666 5.32 0.155999C5.27733 0.134666 5.22933 0.156 5.176 0.219999L0.0880001 5.308C0.0346667 5.36133 0.00800002 5.43067 0.00800002 5.516C0.00800002 5.60133 0.0346667 5.67067 0.0880001 5.724L5.176 10.812C5.22933 10.8653 5.27733 10.8867 5.32 10.876C5.36267 10.8547 5.384 10.8067 5.384 10.732V8.108C5.384 8.02267 5.41067 7.95333 5.464 7.9C5.528 7.836 5.60267 7.804 5.688 7.804C7.52267 7.836 9.10667 8.16133 10.44 8.78C11.7733 9.388 12.9147 10.3213 13.864 11.58C13.9173 11.644 13.9547 11.6707 13.976 11.66C14.008 11.6493 14.0133 11.6013 13.992 11.516C13.5227 9.39333 12.68 7.644 11.464 6.268C10.0133 4.62533 8.088 3.60133 5.688 3.196C5.60267 3.17467 5.528 3.132 5.464 3.068C5.41067 3.004 5.384 2.92933 5.384 2.844Z" fill="white"/>
</svg>
