<svg width="16" height="15" viewBox="0 0 16 15" fill="none" xmlns="http://www.w3.org/2000/svg">
<path d="M14.817 8.621C14.8737 8.247 14.902 7.89 14.902 7.55C14.902 6.30333 14.5903 5.14167 13.967 4.065C13.355 3.02233 12.5277 2.195 11.485 1.583C10.4083 0.959666 9.24667 0.647999 8 0.647999C7.66 0.647999 7.303 0.676333 6.929 0.732999C6.23767 0.313666 5.50667 0.103999 4.736 0.103999C3.97667 0.103999 3.27967 0.290999 2.645 0.664999C2.01033 1.039 1.506 1.549 1.132 2.195C0.758 2.82967 0.571 3.52667 0.571 4.286C0.571 5.07933 0.775 5.80467 1.183 6.462C1.12633 6.85867 1.098 7.22133 1.098 7.55C1.098 8.79667 1.40967 9.95833 2.033 11.035C2.645 12.0777 3.47233 12.905 4.515 13.517C5.59167 14.1403 6.75333 14.452 8 14.452C8.34 14.452 8.697 14.4237 9.071 14.367C9.73967 14.775 10.4707 14.979 11.264 14.979C12.0233 14.979 12.7203 14.792 13.355 14.418C13.9897 14.044 14.494 13.5397 14.868 12.905C15.242 12.259 15.429 11.562 15.429 10.814C15.4403 10.0547 15.2363 9.32367 14.817 8.621ZM11.281 10.695C10.975 11.1257 10.5443 11.4543 9.989 11.681C9.43367 11.9077 8.77067 12.021 8 12.021C7.07067 12.021 6.31133 11.8623 5.722 11.545C5.30267 11.307 4.957 10.9953 4.685 10.61C4.413 10.2133 4.277 9.83367 4.277 9.471C4.277 9.25567 4.35633 9.06867 4.515 8.91C4.685 8.75133 4.90033 8.672 5.161 8.672C5.365 8.672 5.54067 8.72867 5.688 8.842C5.83533 8.98933 5.95433 9.17067 6.045 9.386C6.16967 9.658 6.3 9.88467 6.436 10.066C6.572 10.2473 6.75333 10.3947 6.98 10.508C7.218 10.6213 7.541 10.678 7.949 10.678C8.50433 10.678 8.952 10.559 9.292 10.321C9.632 10.083 9.802 9.794 9.802 9.454C9.802 9.182 9.70567 8.95533 9.513 8.774C9.33167 8.59267 9.09933 8.46233 8.816 8.383C8.65733 8.32633 8.357 8.247 7.915 8.145L7.626 8.077C6.96867 7.941 6.40767 7.77667 5.943 7.584C5.47833 7.38 5.11567 7.108 4.855 6.768C4.59433 6.428 4.464 6.01433 4.464 5.527C4.464 5.02833 4.6 4.59767 4.872 4.235C5.15533 3.861 5.56333 3.572 6.096 3.368C6.64 3.164 7.269 3.062 7.983 3.062C8.561 3.062 9.054 3.13 9.462 3.266C9.88133 3.402 10.227 3.58333 10.499 3.81C10.7823 4.02533 10.9863 4.252 11.111 4.49C11.247 4.728 11.315 4.96033 11.315 5.187C11.315 5.41367 11.2357 5.612 11.077 5.782C10.9183 5.952 10.7087 6.037 10.448 6.037C10.2327 6.037 10.0627 5.986 9.938 5.884C9.836 5.79333 9.71133 5.629 9.564 5.391C9.40533 5.06233 9.207 4.813 8.969 4.643C8.75367 4.46167 8.37967 4.371 7.847 4.371C7.371 4.371 6.98567 4.473 6.691 4.677C6.40767 4.86967 6.266 5.09067 6.266 5.34C6.266 5.48733 6.31133 5.63467 6.402 5.782C6.504 5.89533 6.64 5.99733 6.81 6.088C7.014 6.17867 7.19533 6.24667 7.354 6.292C7.626 6.37133 7.92067 6.445 8.238 6.513C8.85 6.649 9.326 6.77933 9.666 6.904C10.108 7.05133 10.4707 7.21567 10.754 7.397C11.0713 7.61233 11.3093 7.86733 11.468 8.162C11.638 8.45667 11.723 8.825 11.723 9.267C11.723 9.78833 11.5757 10.2643 11.281 10.695Z" fill="white"/>
</svg>
