<svg width="15" height="14" viewBox="0 0 15 14" fill="none" xmlns="http://www.w3.org/2000/svg">
<path d="M7.5 0.179999C6.33 0.179999 5.24 0.474999 4.23 1.065C3.25 1.635 2.465 2.405 1.875 3.375C1.275 4.365 0.965 5.44 0.945 6.6C0.925 7.8 1.205 8.92 1.785 9.96C2.345 10.97 3.115 11.775 4.095 12.375C5.105 12.985 6.205 13.3 7.395 13.32C8.615 13.33 9.745 13.035 10.785 12.435C11.765 11.865 12.55 11.085 13.14 10.095C13.73 9.105 14.035 8.035 14.055 6.885C14.075 5.675 13.79 4.55 13.2 3.51C12.62 2.5 11.83 1.695 10.83 1.095C9.81 0.484999 8.7 0.179999 7.5 0.179999ZM7.545 12C6.585 12 5.69 11.765 4.86 11.295C4.07 10.835 3.44 10.205 2.97 9.405C2.49 8.595 2.25 7.715 2.25 6.765C2.25 5.805 2.49 4.915 2.97 4.095C3.43 3.305 4.055 2.68 4.845 2.22C5.665 1.74 6.55 1.5 7.5 1.5C8.45 1.5 9.33 1.74 10.14 2.22C10.93 2.68 11.56 3.305 12.03 4.095C12.51 4.915 12.75 5.8 12.75 6.75C12.75 7.67 12.52 8.53 12.06 9.33C11.61 10.13 10.995 10.77 10.215 11.25C9.395 11.74 8.505 11.99 7.545 12ZM7.95 2.82H7.065C7.035 2.82 7.01 2.83 6.99 2.85C6.97 2.87 6.96 2.895 6.96 2.925V6.075C6.96 6.105 6.945 6.13 6.915 6.15C6.895 6.17 6.87 6.18 6.84 6.18H4.83C4.8 6.18 4.775 6.19 4.755 6.21C4.735 6.23 4.725 6.255 4.725 6.285V7.185C4.725 7.215 4.735 7.24 4.755 7.26C4.775 7.28 4.8 7.29 4.83 7.29H7.95C7.98 7.29 8.005 7.28 8.025 7.26C8.045 7.24 8.055 7.215 8.055 7.185V2.925C8.055 2.895 8.045 2.87 8.025 2.85C8.005 2.83 7.98 2.82 7.95 2.82Z" fill="#ff702a"/>
</svg>
