<svg width="52" height="53" viewBox="0 0 52 53" fill="none" xmlns="http://www.w3.org/2000/svg">
<path fill-rule="evenodd" clip-rule="evenodd" d="M5.99992 1.99969H46C48.7613 1.99969 50.9999 4.2383 50.9999 6.99982V47C50.9999 49.7611 48.7613 51.9997 46 51.9997H5.99992C3.23846 51.9997 1.00001 49.7611 1.00001 47V6.99982C1.00001 4.2383 3.23846 1.99969 5.99992 1.99969Z" fill="#D4E2F8"/>
<path d="M29.248 25.936H27.04V24.48C27.04 24.2347 27.1093 24.0533 27.248 23.936C27.3547 23.8507 27.488 23.808 27.648 23.808H29.216V21.408L27.056 21.392C26.32 21.392 25.712 21.5627 25.232 21.904C24.8373 22.1813 24.544 22.5653 24.352 23.056C24.2027 23.4507 24.128 23.8773 24.128 24.336V25.936H22.752V28.4H24.128V35.392H27.04V28.4H28.992L29.248 25.936Z" fill="#115DD6"/>
</svg>
