<svg width="13" height="13" viewBox="0 0 13 13" fill="none" xmlns="http://www.w3.org/2000/svg">
<path d="M12.04 5.06H5.18L7.74 2.5C7.82 2.40667 7.86 2.3 7.86 2.18C7.86 2.06 7.82 1.95333 7.74 1.86L6.66 0.799999C6.56667 0.706666 6.46 0.66 6.34 0.66C6.22 0.66 6.11333 0.706666 6.02 0.799999L0.64 6.18C0.546667 6.27333 0.5 6.38 0.5 6.5C0.5 6.62 0.546667 6.72667 0.64 6.82L6.02 12.2C6.11333 12.2933 6.22 12.34 6.34 12.34C6.46 12.34 6.56667 12.2933 6.66 12.2L7.74 11.14C7.82 11.0467 7.86 10.94 7.86 10.82C7.86 10.7 7.82 10.5933 7.74 10.5L5 7.76H12.04C12.1733 7.76 12.28 7.72 12.36 7.64C12.4533 7.54667 12.5 7.43333 12.5 7.3V5.5C12.5 5.38 12.4533 5.28 12.36 5.2C12.28 5.10667 12.1733 5.06 12.04 5.06Z" fill="#FF702A"/>
</svg>
