<svg width="43" height="43" viewBox="0 0 43 43" fill="none" xmlns="http://www.w3.org/2000/svg">
<g clip-path="url(#clip0)">
<path fill-rule="evenodd" clip-rule="evenodd" d="M7.99994 1.99976H36C39.3136 1.99976 41.9999 4.68614 41.9999 7.99989V35.9998C41.9999 39.3135 39.3136 41.9999 36 41.9999H7.99994C4.68618 41.9999 1.99993 39.3135 1.99993 35.9998V7.99989C1.99993 4.68614 4.68618 1.99976 7.99994 1.99976Z" fill="#FEEEE7"/>
<path d="M21.177 28.122C20.8143 27.646 20.5027 27.2153 20.242 26.83C19.0973 25.2207 18.168 23.6737 17.454 22.189C17.2273 21.713 17.0517 21.305 16.927 20.965C16.757 20.5117 16.6323 20.0867 16.553 19.69C16.2243 18.024 16.6153 16.5677 17.726 15.321C18.78 14.1197 20.1343 13.553 21.789 13.621C22.5257 13.6437 23.2227 13.8363 23.88 14.199C24.5373 14.5503 25.0927 15.0263 25.546 15.627C25.9993 16.2277 26.2997 16.8907 26.447 17.616C26.6283 18.5113 26.5773 19.401 26.294 20.285C25.8067 21.815 24.9963 23.447 23.863 25.181C23.5343 25.691 23.0187 26.439 22.316 27.425L21.602 28.428C21.5793 28.4507 21.5623 28.4677 21.551 28.479C21.5397 28.5017 21.4943 28.479 21.415 28.411C21.347 28.343 21.2677 28.2467 21.177 28.122ZM23.982 18.738C23.9933 18.3187 23.897 17.922 23.693 17.548C23.5003 17.1627 23.2227 16.851 22.86 16.613C22.5087 16.3637 22.1233 16.2277 21.704 16.205C21.228 16.1823 20.786 16.273 20.378 16.477C19.9813 16.6697 19.664 16.953 19.426 17.327C19.188 17.701 19.0577 18.1317 19.035 18.619C19.0123 19.0383 19.103 19.4407 19.307 19.826C19.5223 20.2 19.8113 20.5117 20.174 20.761C20.5367 20.999 20.9277 21.1237 21.347 21.135C21.8117 21.1577 22.2423 21.0727 22.639 20.88C23.0357 20.676 23.353 20.387 23.591 20.013C23.829 19.639 23.9593 19.214 23.982 18.738Z" fill="#FF702A"/>
</g>
<defs>
<clipPath id="clip0">
<rect width="43" height="43" fill="white"/>
</clipPath>
</defs>
</svg>
