<svg width="43" height="43" viewBox="0 0 43 43" fill="none" xmlns="http://www.w3.org/2000/svg">
<g clip-path="url(#clip0)">
<path fill-rule="evenodd" clip-rule="evenodd" d="M7.99994 1.99989H36C39.3136 1.99989 41.9999 4.68588 41.9999 7.99963V35.9999C41.9999 39.3137 39.3136 41.9996 36 41.9996H7.99994C4.68618 41.9996 1.99993 39.3137 1.99993 35.9999V7.99963C1.99993 4.68588 4.68618 1.99989 7.99994 1.99989Z" fill="#FEEEE7"/>
<path d="M21.84 19.568C21.7493 19.5793 21.6587 19.6133 21.568 19.67C21.4773 19.7267 21.4037 19.806 21.347 19.908C21.3017 20.01 21.2733 20.1007 21.262 20.18C21.2393 20.316 21.2337 20.4293 21.245 20.52C21.2677 20.6673 21.313 20.7693 21.381 20.826C21.4603 20.8827 21.5453 20.9053 21.636 20.894L21.806 20.877C21.84 20.877 21.891 20.8543 21.959 20.809L22.061 19.568H21.84ZM14.173 18.514C14.6943 19.0353 15.482 19.823 16.536 20.877C18.6327 22.9623 20.2023 24.532 21.245 25.586C21.347 25.688 21.4263 25.739 21.483 25.739C21.551 25.7277 21.636 25.6767 21.738 25.586L28.419 18.888L28.555 18.769C28.7363 18.6217 28.844 18.5027 28.878 18.412C28.9233 18.31 28.9403 18.1457 28.929 17.919L28.912 17.698C28.9233 17.2333 28.691 17.001 28.215 17.001H14.751C14.2977 17.001 14.071 17.2277 14.071 17.681V18.242C14.0597 18.3213 14.0937 18.412 14.173 18.514ZM19.579 19.891C19.6583 19.5963 19.7943 19.3073 19.987 19.024C20.191 18.7633 20.4517 18.5423 20.769 18.361C21.109 18.1683 21.5057 18.0493 21.959 18.004C22.1857 17.9927 22.418 18.0097 22.656 18.055C22.9053 18.089 23.1093 18.1627 23.268 18.276C23.438 18.3893 23.591 18.5537 23.727 18.769C23.8403 18.9617 23.914 19.2053 23.948 19.5C23.9593 19.6813 23.948 19.8853 23.914 20.112C23.8687 20.3047 23.7893 20.4917 23.676 20.673C23.5853 20.8317 23.455 20.9733 23.285 21.098C23.1263 21.2113 22.928 21.285 22.69 21.319C22.4633 21.3417 22.282 21.2907 22.146 21.166C22.0893 21.2113 21.993 21.268 21.857 21.336C21.7663 21.37 21.6303 21.3983 21.449 21.421C21.3357 21.4437 21.2337 21.4437 21.143 21.421C21.0523 21.387 20.9673 21.3417 20.888 21.285C20.7973 21.1943 20.735 21.115 20.701 21.047C20.6557 20.945 20.6217 20.826 20.599 20.69C20.5763 20.4633 20.5933 20.2537 20.65 20.061C20.718 19.8683 20.8087 19.6983 20.922 19.551C21.0127 19.4377 21.1487 19.3187 21.33 19.194C21.4887 19.1147 21.6643 19.058 21.857 19.024H22.01C22.146 19.0127 22.2423 19.0127 22.299 19.024C22.4123 19.024 22.5483 19.0467 22.707 19.092L22.554 20.792C22.5767 20.8033 22.6333 20.809 22.724 20.809C22.8487 20.7863 22.9563 20.7353 23.047 20.656C23.1377 20.5767 23.2057 20.4803 23.251 20.367C23.2963 20.2537 23.3303 20.129 23.353 19.993C23.387 19.8457 23.3927 19.6983 23.37 19.551C23.336 19.1883 23.1943 18.9107 22.945 18.718C22.6957 18.548 22.3613 18.48 21.942 18.514C21.6473 18.548 21.364 18.6273 21.092 18.752C20.8653 18.8767 20.6727 19.0467 20.514 19.262C20.3553 19.4773 20.242 19.704 20.174 19.942C20.106 20.18 20.0833 20.435 20.106 20.707C20.1173 20.8997 20.174 21.0923 20.276 21.285C20.378 21.4777 20.4857 21.608 20.599 21.676C20.735 21.778 20.8823 21.846 21.041 21.88C21.1997 21.914 21.3753 21.9197 21.568 21.897C21.7947 21.8743 21.9533 21.8517 22.044 21.829C22.1913 21.795 22.3217 21.744 22.435 21.676L22.571 21.965C22.5937 22.033 22.6107 22.084 22.622 22.118C22.5767 22.152 22.5087 22.186 22.418 22.22C22.3047 22.2653 22.214 22.2993 22.146 22.322C22.0893 22.3333 21.993 22.3503 21.857 22.373C21.721 22.3957 21.619 22.407 21.551 22.407C21.3017 22.441 21.058 22.4297 20.82 22.373C20.582 22.3163 20.3667 22.2257 20.174 22.101C19.9927 21.965 19.8453 21.7893 19.732 21.574C19.596 21.3247 19.5223 21.0583 19.511 20.775C19.477 20.5257 19.4997 20.231 19.579 19.891ZM25.563 23.053C25.5517 23.0417 25.5347 23.0247 25.512 23.002L25.41 22.917C25.3647 22.985 25.3307 23.0303 25.308 23.053L22.248 26.113C22.01 26.351 21.755 26.47 21.483 26.47C21.2223 26.47 20.9787 26.3567 20.752 26.13L17.692 23.07C17.658 23.036 17.6183 22.985 17.573 22.917C17.539 22.9397 17.5107 22.9623 17.488 22.985L14.156 26.317C14.0767 26.3963 14.054 26.504 14.088 26.64C14.156 26.946 14.3713 27.099 14.734 27.099H28.368C28.606 27.065 28.7703 26.9517 28.861 26.759C28.9063 26.6457 28.9233 26.555 28.912 26.487C28.912 26.419 28.8667 26.3397 28.776 26.249C28.062 25.5463 26.991 24.481 25.563 23.053ZM14.071 25.314L16.961 22.424C16.3263 21.7667 15.363 20.792 14.071 19.5V25.314ZM28.912 25.297V19.5L26.022 22.39L28.912 25.297Z" fill="#FF702A"/>
</g>
<defs>
<clipPath id="clip0">
<rect width="43" height="43" fill="white"/>
</clipPath>
</defs>
</svg>
