<svg width="43" height="43" viewBox="0 0 43 43" fill="none" xmlns="http://www.w3.org/2000/svg">
<g clip-path="url(#clip0)">
<path fill-rule="evenodd" clip-rule="evenodd" d="M7.99994 1.99976H36C39.3136 1.99976 41.9999 4.68614 41.9999 7.99989V35.9998C41.9999 39.3135 39.3136 41.9999 36 41.9999H7.99994C4.68618 41.9999 1.99993 39.3135 1.99993 35.9998V7.99989C1.99993 4.68614 4.68618 1.99976 7.99994 1.99976Z" fill="#FEEEE7"/>
<path d="M26.288 30.033C25.982 30.0443 25.6193 29.9367 25.2 29.71C24.86 29.5173 24.5143 29.2737 24.163 28.979C23.4603 28.3783 22.7917 27.6303 22.157 26.735C21.6923 26.0777 21.171 25.222 20.593 24.168C19.947 23.0233 19.42 21.9977 19.012 21.091C18.4907 19.9577 18.094 18.8753 17.822 17.844C17.686 17.2887 17.601 16.807 17.567 16.399C17.533 15.8777 17.5727 15.396 17.686 14.954C17.9013 14.1493 18.3773 13.679 19.114 13.543C19.3973 13.4977 19.828 13.4127 20.406 13.288C20.8367 13.186 21.1597 13.118 21.375 13.084C21.6243 13.0387 21.8227 13.0557 21.97 13.135C22.1287 13.2143 22.2533 13.3673 22.344 13.594C22.8993 14.9313 23.3753 16.1157 23.772 17.147C23.8627 17.385 23.8797 17.589 23.823 17.759C23.7777 17.9177 23.653 18.065 23.449 18.201L23.075 18.456C22.735 18.6713 22.4857 18.8413 22.327 18.966C22.259 19.0227 22.2023 19.102 22.157 19.204C22.1117 19.2947 22.0947 19.374 22.106 19.442C22.4913 20.9833 23.2167 22.3717 24.282 23.607C24.4407 23.7997 24.6277 23.8393 24.843 23.726C25.0243 23.6353 25.3077 23.5163 25.693 23.369L26.05 23.216C26.2993 23.1253 26.509 23.1027 26.679 23.148C26.849 23.1933 27.0077 23.3237 27.155 23.539C28.0843 24.9217 28.7757 25.9587 29.229 26.65C29.3877 26.8993 29.4557 27.1147 29.433 27.296C29.4103 27.4773 29.2913 27.6757 29.076 27.891L28.906 28.061C28.6453 28.3103 28.396 28.5313 28.158 28.724C27.7727 29.0187 27.1493 29.455 26.288 30.033Z" fill="#FF702A"/>
</g>
<defs>
<clipPath id="clip0">
<rect width="43" height="43" fill="white"/>
</clipPath>
</defs>
</svg>
