<svg width="53" height="53" viewBox="0 0 53 53" fill="none" xmlns="http://www.w3.org/2000/svg">
<path fill-rule="evenodd" clip-rule="evenodd" d="M6.99997 1.99969H47C49.7614 1.99969 52 4.2383 52 6.99982V47C52 49.7611 49.7614 51.9997 47 51.9997H6.99997C4.23852 51.9997 1.99996 49.7611 1.99996 47V6.99982C1.99996 4.2383 4.23852 1.99969 6.99997 1.99969Z" fill="#FFDFE1"/>
<path d="M27.336 21.392C26.1307 21.392 25.064 21.6587 24.136 22.192C23.3253 22.6613 22.6853 23.296 22.216 24.096C21.7893 24.8427 21.576 25.616 21.576 26.416C21.576 27.1413 21.7093 27.7707 21.976 28.304C22.264 28.88 22.68 29.2747 23.224 29.488C23.32 29.5307 23.4053 29.536 23.48 29.504C23.5547 29.472 23.6027 29.4027 23.624 29.296L23.8 28.656C23.8213 28.5493 23.8213 28.4693 23.8 28.416C23.7893 28.3627 23.7467 28.2933 23.672 28.208C23.32 27.7813 23.144 27.2533 23.144 26.624C23.144 25.9413 23.304 25.3067 23.624 24.72C23.9547 24.1227 24.4133 23.6533 25 23.312C25.6187 22.9493 26.3227 22.768 27.112 22.768C27.816 22.768 28.424 22.9067 28.936 23.184C29.4267 23.44 29.8 23.8027 30.056 24.272C30.3227 24.7307 30.456 25.2587 30.456 25.856C30.456 26.6347 30.3493 27.3493 30.136 28C29.9227 28.6507 29.624 29.1627 29.24 29.536C28.8453 29.9307 28.3973 30.128 27.896 30.128C27.6187 30.128 27.3733 30.0587 27.16 29.92C26.9467 29.7813 26.7867 29.5947 26.68 29.36C26.584 29.1147 26.568 28.8533 26.632 28.576C26.696 28.32 26.808 27.936 26.968 27.424C27.096 27.008 27.1867 26.704 27.24 26.512C27.3147 26.192 27.352 25.9307 27.352 25.728C27.352 25.376 27.2613 25.0933 27.08 24.88C26.888 24.6347 26.616 24.512 26.264 24.512C25.976 24.512 25.7147 24.6027 25.48 24.784C25.2453 24.9653 25.0587 25.216 24.92 25.536C24.7813 25.856 24.712 26.2133 24.712 26.608C24.712 26.832 24.7333 27.0507 24.776 27.264C24.808 27.424 24.8507 27.5733 24.904 27.712L24.968 27.872L23.928 32.256C23.7467 33.0347 23.736 34.0213 23.896 35.216L23.912 35.312C23.9227 35.3547 23.9493 35.3813 23.992 35.392C24.0347 35.4027 24.072 35.392 24.104 35.36L24.152 35.312C24.8773 34.352 25.3467 33.488 25.56 32.72L26.12 30.512C26.2587 30.7893 26.5147 31.0293 26.888 31.232C27.2613 31.424 27.6613 31.52 28.088 31.52C28.9307 31.52 29.688 31.2747 30.36 30.784C31 30.3147 31.5013 29.664 31.864 28.832C32.2373 27.9893 32.424 27.0453 32.424 26C32.424 25.2 32.2107 24.448 31.784 23.744C31.3573 23.0293 30.7707 22.4693 30.024 22.064C29.224 21.616 28.328 21.392 27.336 21.392Z" fill="#EC2734"/>
</svg>
