<svg width="20" height="20" viewBox="0 0 20 20" fill="none" xmlns="http://www.w3.org/2000/svg">
<path d="M18.987 16.31L14.617 11.94C13.971 12.966 13.135 13.8083 12.109 14.467L16.46 18.837C16.8147 19.179 17.2327 19.35 17.714 19.35C18.208 19.35 18.626 19.1727 18.968 18.818C19.3227 18.476 19.5 18.058 19.5 17.564C19.5 17.0827 19.329 16.6647 18.987 16.31ZM14.75 7.475C14.75 6.183 14.427 4.986 13.781 3.884C13.1477 2.80733 12.2927 1.95233 11.216 1.319C10.114 0.673 8.917 0.35 7.625 0.35C6.333 0.35 5.136 0.673 4.034 1.319C2.95733 1.95233 2.10233 2.80733 1.469 3.884C0.823 4.986 0.5 6.183 0.5 7.475C0.5 8.767 0.823 9.964 1.469 11.066C2.10233 12.1427 2.95733 12.9977 4.034 13.631C5.136 14.277 6.333 14.6 7.625 14.6C8.917 14.6 10.114 14.277 11.216 13.631C12.2927 12.9977 13.1477 12.1427 13.781 11.066C14.427 9.964 14.75 8.767 14.75 7.475ZM7.625 12.814C6.66233 12.814 5.763 12.5733 4.927 12.092C4.129 11.6107 3.48933 10.971 3.008 10.173C2.52667 9.337 2.286 8.43767 2.286 7.475C2.286 6.51233 2.52667 5.613 3.008 4.777C3.48933 3.979 4.129 3.33933 4.927 2.858C5.763 2.37667 6.66233 2.136 7.625 2.136C8.58767 2.136 9.487 2.37667 10.323 2.858C11.121 3.33933 11.7607 3.979 12.242 4.777C12.7233 5.613 12.964 6.51233 12.964 7.475C12.964 8.43767 12.7233 9.337 12.242 10.173C11.7607 10.971 11.121 11.6107 10.323 12.092C9.487 12.5733 8.58767 12.814 7.625 12.814ZM3.464 7.475H4.661C4.661 6.943 4.794 6.449 5.06 5.993C5.326 5.537 5.687 5.176 6.143 4.91C6.599 4.644 7.093 4.511 7.625 4.511V3.314C6.865 3.314 6.16833 3.504 5.535 3.884C4.90167 4.25133 4.395 4.75167 4.015 5.385C3.64767 6.01833 3.464 6.715 3.464 7.475Z" fill="white"/>
</svg>
