<svg width="53" height="53" viewBox="0 0 53 53" fill="none" xmlns="http://www.w3.org/2000/svg">
<path fill-rule="evenodd" clip-rule="evenodd" d="M6.99992 1.99969H46.9999C49.7613 1.99969 51.9999 4.2383 51.9999 6.99982V47C51.9999 49.7611 49.7613 51.9997 46.9999 51.9997H6.99992C4.23846 51.9997 1.9999 49.7611 1.9999 47V6.99982C1.9999 4.2383 4.23846 1.99969 6.99992 1.99969Z" fill="#F8DAE5"/>
<path d="M33.064 24.88C32.4453 23.8027 31.5973 22.9547 30.52 22.336C29.4533 21.7173 28.28 21.408 27 21.408C25.7307 21.408 24.5627 21.7173 23.496 22.336C22.408 22.9653 21.5547 23.8187 20.936 24.896C20.3173 25.9627 20.008 27.136 20.008 28.416C20.008 29.6853 20.3173 30.8533 20.936 31.92C21.5653 32.9867 22.4133 33.8347 23.48 34.464C24.5787 35.0933 25.7573 35.408 27.016 35.408C28.2747 35.408 29.4427 35.0933 30.52 34.464C31.5973 33.8347 32.4453 32.9867 33.064 31.92C33.6827 30.8533 33.992 29.6853 33.992 28.416C33.992 27.136 33.6827 25.9573 33.064 24.88ZM27 22.56C28.3973 22.56 29.64 23.008 30.728 23.904C30.0773 24.736 29.1227 25.4133 27.864 25.936C27.1707 24.6987 26.408 23.6373 25.576 22.752C26.056 22.624 26.5307 22.56 27 22.56ZM22.456 24.768C22.968 24.1173 23.6027 23.5947 24.36 23.2C25.2133 24.0533 25.992 25.104 26.696 26.352C25.3093 26.7787 23.832 26.992 22.264 26.992C21.9333 26.992 21.6293 26.9813 21.352 26.96C21.5653 26.1493 21.9333 25.4187 22.456 24.768ZM21.16 28.4C21.16 28.3467 21.1653 28.2987 21.176 28.256V28.112C21.2933 28.1227 21.5653 28.128 21.992 28.128C23.8587 28.128 25.592 27.872 27.192 27.36C27.2773 27.5307 27.4053 27.8027 27.576 28.176L27.608 28.24C26.68 28.4533 25.7307 28.96 24.76 29.76C23.7893 30.5493 23.08 31.3813 22.632 32.256C21.6507 31.1253 21.16 29.84 21.16 28.4ZM27 34.24C25.688 34.24 24.4987 33.8293 23.432 33.008C23.848 32.1867 24.4987 31.392 25.384 30.624C26.2693 29.856 27.1333 29.3867 27.976 29.216C28.5093 30.72 28.872 32.2613 29.064 33.84C28.392 34.1067 27.704 34.24 27 34.24ZM31.96 31.472C31.48 32.2293 30.8773 32.8373 30.152 33.296C30.0027 31.9307 29.6827 30.512 29.192 29.04C29.7573 28.9973 30.3387 28.976 30.936 28.976C31.576 28.976 32.1947 28.9973 32.792 29.04C32.7173 29.8827 32.44 30.6933 31.96 31.472ZM31.096 27.968C30.2853 27.968 29.5333 28 28.84 28.064C28.68 27.6587 28.52 27.28 28.36 26.928C29.8213 26.2773 30.8453 25.5093 31.432 24.624C32.2853 25.6267 32.744 26.7573 32.808 28.016C32.2533 27.984 31.6827 27.968 31.096 27.968Z" fill="#EA4C89"/>
</svg>
