<svg width="53" height="53" viewBox="0 0 53 53" fill="none" xmlns="http://www.w3.org/2000/svg">
<path fill-rule="evenodd" clip-rule="evenodd" d="M6.99997 1.99969H47C49.7614 1.99969 52 4.2383 52 6.99982V47C52 49.7611 49.7614 51.9997 47 51.9997H6.99997C4.23852 51.9997 1.99996 49.7611 1.99996 47V6.99982C1.99996 4.2383 4.23852 1.99969 6.99997 1.99969Z" fill="#CFEDFF"/>
<path d="M34.008 25.048C33.5067 25.272 32.952 25.4267 32.344 25.512C32.6427 25.3413 32.8987 25.1173 33.112 24.84C33.336 24.5627 33.5013 24.2533 33.608 23.912C33.064 24.2533 32.456 24.488 31.784 24.616C31.528 24.328 31.2133 24.104 30.84 23.944C30.4773 23.784 30.0933 23.704 29.688 23.704C29.1653 23.704 28.6853 23.8373 28.248 24.104C27.8107 24.36 27.464 24.7067 27.208 25.144C26.952 25.5813 26.824 26.0613 26.824 26.584C26.824 26.84 26.8453 27.0587 26.888 27.24C25.7147 27.176 24.6107 26.8773 23.576 26.344C22.5627 25.8213 21.6933 25.1173 20.968 24.232C20.712 24.6907 20.584 25.1707 20.584 25.672C20.584 26.1627 20.696 26.6213 20.92 27.048C21.1547 27.464 21.4693 27.8053 21.864 28.072C21.3947 28.0613 20.9627 27.9387 20.568 27.704V27.752C20.568 28.4453 20.7813 29.0533 21.208 29.576C21.6453 30.0987 22.2 30.4293 22.872 30.568C22.6373 30.632 22.3813 30.664 22.104 30.664C21.912 30.664 21.736 30.648 21.576 30.616C21.7573 31.192 22.0933 31.6667 22.584 32.04C23.0747 32.4027 23.6293 32.5893 24.248 32.6C23.7573 32.9947 23.2027 33.2987 22.584 33.512C21.976 33.7253 21.3413 33.832 20.68 33.832C20.5413 33.832 20.328 33.8213 20.04 33.8H19.992C21.3253 34.6533 22.7973 35.08 24.408 35.08C25.6773 35.08 26.8453 34.8347 27.912 34.344C28.8933 33.8853 29.7467 33.2453 30.472 32.424C31.144 31.656 31.6667 30.7813 32.04 29.8C32.392 28.8507 32.568 27.8907 32.568 26.92V26.536C33.1333 26.1307 33.6133 25.6347 34.008 25.048Z" fill="#1DA1F2"/>
</svg>
